<?xml version="1.0" standalone="no"?>
<!DOCTYPE svg PUBLIC "-//W3C//DTD SVG 20010904//EN"
 "http://www.w3.org/TR/2001/REC-SVG-20010904/DTD/svg10.dtd">
<svg version="1.0" xmlns="http://www.w3.org/2000/svg"
 width="2084.000000pt" height="2084.000000pt" viewBox="0 0 2084.000000 2084.000000"
 preserveAspectRatio="xMidYMid meet">

<g transform="translate(0.000000,2084.000000) scale(0.100000,-0.100000)"
fill="#000000" stroke="none">
<path d="M14862 14108 c-5 -7 -19 -186 -31 -398 -12 -212 -23 -394 -24 -405
-1 -14 -18 3 -59 61 -109 156 -298 334 -453 428 -63 38 -105 46 -105 22 0 -8
33 -42 73 -74 175 -145 309 -317 403 -518 24 -51 44 -99 44 -105 0 -6 -36 23
-81 65 -136 128 -322 241 -521 316 -47 18 -93 30 -102 27 -36 -14 -13 -38 76
-83 162 -81 294 -182 419 -319 67 -74 107 -130 88 -122 -61 25 -238 78 -301
91 -83 17 -278 37 -290 29 -5 -2 -8 -12 -8 -22 0 -14 19 -21 108 -39 271 -53
512 -174 702 -350 l75 -69 82 74 c203 180 449 301 712 349 75 14 91 20 91 35
0 10 -3 20 -7 22 -15 9 -214 -13 -310 -34 -54 -12 -140 -36 -190 -54 -51 -18
-93 -31 -93 -28 0 16 93 123 174 200 102 97 218 180 344 242 61 31 82 46 82
61 0 26 -11 25 -97 -4 -202 -69 -405 -192 -560 -340 -35 -32 -63 -55 -63 -50
0 6 27 64 59 129 94 192 208 339 369 477 50 44 92 86 92 94 0 29 -49 13 -136
-45 -168 -111 -297 -235 -416 -402 l-57 -79 -5 42 c-3 24 -15 207 -26 407 -12
200 -23 368 -26 373 -7 12 -20 10 -32 -4z"/>
<path d="M10008 12970 c-379 -35 -706 -213 -923 -501 -188 -250 -278 -534
-278 -879 0 -261 40 -445 142 -655 120 -245 276 -413 503 -544 318 -182 634
-227 1008 -144 428 95 683 312 760 647 30 128 25 319 -9 409 -43 110 -117 181
-239 228 -44 17 -79 22 -152 23 -124 1 -177 -17 -264 -92 -170 -143 -304 -226
-429 -262 -26 -8 -46 -19 -44 -25 7 -20 167 -93 232 -105 137 -26 215 8 347
152 103 111 158 150 243 173 81 21 123 19 175 -7 34 -17 51 -35 70 -72 69
-137 -10 -446 -159 -623 -223 -266 -661 -397 -995 -298 -184 54 -355 163 -512
326 -184 192 -302 418 -350 674 -24 131 -15 390 19 535 61 257 150 430 306
592 181 191 413 291 671 290 253 0 461 -84 636 -257 99 -98 144 -172 164 -270
l11 -55 46 0 c59 0 115 32 143 82 20 35 22 50 18 131 -3 74 -9 102 -30 142
-115 224 -456 369 -908 388 -63 3 -154 1 -202 -3z"/>
<path d="M12715 12969 c-604 -51 -1066 -479 -1181 -1094 -26 -137 -26 -440 -1
-570 123 -625 575 -1041 1187 -1095 400 -34 792 103 1060 371 201 201 326 454
376 759 21 125 21 375 0 500 -93 567 -463 973 -1000 1100 -74 18 -282 42 -331
38 -11 0 -60 -4 -110 -9z m325 -176 c285 -57 540 -266 680 -557 188 -391 188
-901 0 -1292 -190 -394 -572 -618 -977 -573 -462 51 -803 413 -899 954 -24
136 -24 394 0 530 83 467 348 803 726 919 151 47 302 53 470 19z"/>
<path d="M6660 11590 l0 -1330 940 0 940 0 0 176 c0 163 -1 176 -17 171 -10
-2 -58 -17 -108 -31 -261 -77 -845 -150 -1215 -151 l-204 0 -13 25 c-10 19
-13 148 -13 566 0 633 -13 574 122 574 224 0 819 -78 1099 -144 l99 -23 0 168
0 169 -634 0 c-626 0 -634 0 -660 21 l-26 20 0 452 c0 346 3 458 13 477 l13
25 219 -1 c390 -3 982 -79 1232 -159 43 -14 81 -25 86 -25 4 0 7 79 7 175 l0
175 -940 0 -940 0 0 -1330z"/>
<path d="M5280 9493 c-645 -101 -1083 -588 -1129 -1256 -52 -736 372 -1337
1039 -1473 147 -31 399 -42 555 -25 432 47 730 192 1088 531 l97 92 0 -291 0
-291 155 0 155 0 0 497 0 496 42 54 c201 262 582 451 945 470 196 11 329 -29
516 -154 55 -36 138 -103 184 -147 l83 -81 0 767 0 768 -160 0 -160 0 0 -540
0 -541 -27 15 c-16 7 -59 24 -98 35 -362 113 -798 79 -1130 -86 -245 -123
-375 -252 -626 -625 -77 -114 -166 -241 -199 -281 -123 -154 -296 -295 -459
-377 -259 -129 -668 -187 -901 -127 -168 43 -294 113 -419 231 -131 125 -234
291 -296 479 -49 152 -66 252 -72 432 -11 311 55 581 198 812 69 111 218 263
319 325 269 166 599 186 885 54 206 -95 374 -277 407 -442 l11 -54 46 0 c63 0
111 28 141 81 21 37 24 56 24 121 -2 133 -68 241 -206 338 -125 88 -316 155
-528 185 -96 13 -412 19 -480 8z"/>
<path d="M6930 8784 l0 -666 88 89 c48 48 117 110 155 138 l67 49 0 528 0 528
-155 0 -155 0 0 -666z"/>
<path d="M10140 9446 c0 -2 16 -38 35 -80 19 -43 35 -83 35 -90 0 -7 -200
-570 -444 -1252 l-443 -1239 170 -3 c93 -1 171 -1 172 0 4 4 124 421 427 1476
122 424 225 772 228 772 6 0 229 -497 803 -1790 l202 -455 174 -3 c162 -2 173
-1 167 15 -4 10 -271 611 -594 1335 l-587 1318 -172 0 c-95 0 -173 -2 -173 -4z"/>
<path d="M11940 8115 l0 -1335 155 0 155 0 0 1229 c0 793 4 1239 10 1256 l10
26 437 -3 c490 -5 495 -5 649 -78 141 -67 228 -166 281 -316 25 -72 27 -91 27
-224 0 -132 -2 -152 -27 -223 -53 -152 -140 -250 -283 -319 -142 -68 -215 -78
-616 -78 l-348 0 0 -79 0 -79 158 -4 c141 -3 161 -6 202 -27 74 -38 234 -211
399 -431 298 -395 405 -519 528 -606 l61 -44 243 2 242 3 -89 59 c-206 136
-361 292 -587 591 -145 191 -299 378 -346 419 -11 11 -21 22 -21 26 0 4 42 10
93 13 123 8 232 37 347 93 173 85 306 247 370 449 35 110 39 295 10 420 -71
308 -301 525 -615 580 -73 12 -201 15 -766 15 l-679 0 0 -1335z"/>
<path d="M14430 8115 l0 -1335 165 0 c157 0 165 1 165 20 0 10 -34 520 -75
1131 -41 612 -74 1113 -72 1115 3 4 60 -102 532 -986 219 -410 398 -746 399
-747 0 0 58 121 127 270 406 871 683 1457 690 1457 5 0 9 -508 9 -1130 l0
-1130 160 0 160 0 0 1335 0 1335 -166 -2 -165 -3 -376 -802 c-207 -442 -379
-803 -382 -803 -4 0 -200 362 -436 805 l-430 805 -152 0 -153 0 0 -1335z"/>
<path d="M8690 7385 l0 -605 160 0 160 0 0 446 0 446 -32 42 c-74 95 -217 237
-270 267 -17 9 -18 -22 -18 -596z"/>
<path d="M10405 7883 c-10 -88 -33 -172 -55 -203 -25 -35 -102 -65 -185 -75
-93 -10 -105 -14 -105 -34 0 -16 11 -20 68 -25 145 -15 216 -51 246 -125 8
-22 21 -81 27 -130 10 -77 14 -91 30 -91 19 0 21 9 34 115 19 161 64 203 244
227 84 11 92 14 89 32 -3 18 -13 22 -68 28 -100 11 -158 28 -191 55 -50 42
-55 57 -85 251 -3 23 -10 32 -24 32 -15 0 -20 -10 -25 -57z"/>
</g>
</svg>
