<svg width="33" height="28" viewBox="0 0 33 28" fill="none" xmlns="http://www.w3.org/2000/svg">
<g clip-path="url(#clip0_66_850)">
<path d="M33.0002 19.2276C33.0002 19.4759 32.8225 19.6808 32.5869 19.7163C32.5792 19.7163 32.5715 19.7163 32.5638 19.7163C30.5015 19.9764 27.4545 20.6108 24.1101 22.2857C20.4721 24.1064 17.9812 26.4039 16.5021 28C15.023 26.4079 12.5321 24.1064 8.89414 22.2857C5.54587 20.6108 2.49882 19.9764 0.440424 19.7163C0.4327 19.7163 0.424976 19.7163 0.417253 19.7163C0.185538 19.6808 0.00402832 19.4759 0.00402832 19.2276C0.00402832 18.9557 0.220295 18.735 0.486767 18.735C0.494491 18.735 0.506076 18.735 0.5138 18.735C2.83867 18.8099 5.67717 19.1685 8.7667 20.197C9.73604 20.5202 10.6359 20.8788 11.4662 21.2493C10.5007 19.8424 9.12972 18.132 7.24124 16.4571C4.69238 14.1951 2.16283 12.8512 0.312981 12.0512C0.301395 12.0473 0.293671 12.0433 0.282086 12.0394C0.116024 11.9606 0.00402832 11.7911 0.00402832 11.5941C0.00402832 11.3222 0.220295 11.1015 0.486767 11.1015C0.529248 11.1015 0.571729 11.1094 0.61421 11.1172C0.621934 11.1172 0.633519 11.1212 0.641243 11.1251C3.16307 11.9015 6.54996 13.3005 9.95617 15.9369C11.3735 17.0325 12.5552 18.1596 13.5323 19.2197C12.9723 17.6394 12.1575 15.7872 10.9603 13.8483C8.67401 10.1478 5.95909 7.70443 3.98566 6.21872C3.85821 6.13202 3.77711 5.98227 3.77711 5.81281C3.77711 5.54089 3.99338 5.3202 4.25985 5.3202C4.34481 5.3202 4.42205 5.3399 4.4877 5.37931C4.4877 5.37931 4.49543 5.37931 4.49543 5.38325C6.13288 6.30936 8.19514 7.68867 10.2922 9.70246C12.5591 11.8778 14.1154 14.0729 15.1427 15.7793C15.4362 10.6877 15.7297 5.59606 16.0232 0.500493C16.0232 0.476847 16.0232 0.453202 16.0271 0.429557C16.058 0.189163 16.2588 0 16.506 0C16.7531 0 16.9501 0.185222 16.9848 0.421675C16.9848 0.449261 16.9848 0.472906 16.9887 0.500493C17.2822 5.59212 17.5757 10.6837 17.8692 15.7754C18.8965 14.069 20.449 11.8739 22.7198 9.69852C24.8091 7.69261 26.8675 6.3133 28.5049 5.38719C28.5049 5.38719 28.5049 5.38719 28.5088 5.38719C28.5126 5.38719 28.5204 5.37931 28.5242 5.37931C28.5937 5.3399 28.671 5.3202 28.7521 5.3202C29.0185 5.3202 29.2348 5.54089 29.2348 5.81281C29.2348 5.98227 29.1537 6.12808 29.0263 6.21872C27.0528 7.70443 24.3379 10.1478 22.0517 13.8483C20.8545 15.7872 20.0396 17.6394 19.4796 19.2197C20.4567 18.1596 21.6423 17.0325 23.0558 15.9369C26.462 13.3005 29.8489 11.9015 32.3707 11.1251C32.3784 11.1251 32.39 11.1212 32.3977 11.1172C32.4363 11.1054 32.4788 11.1015 32.5252 11.1015C32.7916 11.1015 33.0079 11.3222 33.0079 11.5941C33.0079 11.7911 32.892 11.9606 32.7298 12.0394C32.7183 12.0433 32.7067 12.0473 32.6951 12.0552C30.8414 12.8552 28.3195 14.203 25.7745 16.4611C23.8861 18.136 22.5151 19.8463 21.5496 21.2532C22.3799 20.8788 23.2797 20.5241 24.2491 20.201C27.3386 19.1724 30.1771 18.8138 32.502 18.7389C32.502 18.7389 32.5213 18.7389 32.529 18.7389C32.7955 18.7389 33.0118 18.9596 33.0118 19.2315L33.0002 19.2276Z" fill="#506157"/>
</g>
<defs>
<clipPath id="clip0_66_850">
<rect width="33" height="28" fill="white"/>
</clipPath>
</defs>
</svg>
